<?xml version="1.0" encoding="UTF-8"?>
<svg width="16px" height="16px" viewBox="0 0 16 16" version="1.1" xmlns="http://www.w3.org/2000/svg" xmlns:xlink="http://www.w3.org/1999/xlink">
    <!-- Generator: sketchtool 62 (101010) - https://sketch.com -->
    <title>872A7E0A-FD91-45E4-BC0E-A7FB7B8E144C</title>
    <desc>Created with sketchtool.</desc>
    <defs>
        <polygon id="path-1" points="0 0.0004 15.99984 0.0004 15.99984 16 0 16"></polygon>
    </defs>
    <g id="Desktop" stroke="none" stroke-width="1" fill="none" fill-rule="evenodd">
        <g id="Kreatik_mail_stopka_v1x2" transform="translate(-293.000000, -203.000000)">
            <rect fill="#FFFFFF" x="0" y="0" width="600" height="525"></rect>
            <g id="sm/behance" transform="translate(293.000000, 203.000000)">
                <g id="Group-10">
                    <g id="Group-3">
                        <mask id="mask-2" fill="white">
                            <use xlink:href="#path-1"></use>
                        </mask>
                        <g id="Clip-2"></g>
                        <path d="M12.96384,9.2236 L9.84384,9.2236 C9.84384,10.3412 10.90304,10.2708 10.90304,10.2708 C11.90624,10.2708 11.87024,9.6228 11.87024,9.6228 L12.93024,9.6228 C12.93024,11.3436 10.86784,11.2268 10.86784,11.2268 C8.39664,11.2268 8.55504,8.9228 8.55504,8.9228 C8.55504,8.9092 8.55744,6.6076 10.86784,6.6076 C13.30784,6.6076 12.96384,9.2236 12.96384,9.2236 L12.96384,9.2236 Z M8.31664,9.3204 C8.31664,11.1604 6.40144,11.1004 6.40144,11.1004 L3.26704,11.1004 L3.26704,5.0748 L6.40144,5.0748 C7.35504,5.0748 8.10544,5.6028 8.10544,6.678 C8.10544,7.7572 7.18704,7.826 7.18704,7.826 C8.39904,7.826 8.31664,9.3204 8.31664,9.3204 L8.31664,9.3204 Z M9.57184,6.1724 L12.05824,6.1724 L12.05824,5.4308 L9.57184,5.4308 L9.57184,6.1724 Z M7.99984,0.0004 C3.58224,0.0004 -0.00016,3.582 -0.00016,8.0004 C-0.00016,12.418 3.58224,16.0004 7.99984,16.0004 C12.41744,16.0004 15.99984,12.418 15.99984,8.0004 C15.99984,3.582 12.41744,0.0004 7.99984,0.0004 L7.99984,0.0004 Z" id="Fill-1" fill="#000000" mask="url(#mask-2)"></path>
                    </g>
                    <path d="M11.8088129,8.41816 L9.8328,8.41816 C9.8328,8.41816 9.9608,7.49096 10.8904,7.49096 C11.8232,7.49096 11.8088129,8.41816 11.8088129,8.41816" id="Fill-4" fill="#000000"></path>
                    <path d="M6.82632,6.77208 C6.82632,7.39928 6.57832,7.49048 6.29272,7.49048 L4.64872,7.49048 L4.64872,6.14488 L6.40152,6.14488 C6.40152,6.14488 6.82632,6.14488 6.82632,6.77208" id="Fill-6" fill="#000000"></path>
                    <path d="M7.03456678,9.24784 C7.03456678,9.95104 6.56256,10.02544 6.31456,10.03104 L4.64896,10.03104 L4.64896,8.41823854 L6.40096,8.41823854 C6.40096,8.41823854 7.03696,8.41184 7.03456678,9.24784" id="Fill-8" fill="#000000"></path>
                </g>
            </g>
        </g>
    </g>
</svg>