<?xml version="1.0" encoding="UTF-8"?>
<svg width="14px" height="16px" viewBox="0 0 14 16" version="1.1" xmlns="http://www.w3.org/2000/svg" xmlns:xlink="http://www.w3.org/1999/xlink">
    <!-- Generator: sketchtool 62 (101010) - https://sketch.com -->
    <title>4BF3039D-261D-4D34-980A-54D5FB08A695</title>
    <desc>Created with sketchtool.</desc>
    <defs>
        <polygon id="path-1" points="0.000233333333 0.00024 13.8094444 0.00024 13.8094444 16 0.000233333333 16"></polygon>
    </defs>
    <g id="Desktop" stroke="none" stroke-width="1" fill="none" fill-rule="evenodd">
        <g id="Kreatik_mail_stopka_v1x2" transform="translate(-355.000000, -203.000000)">
            <rect fill="#FFFFFF" x="0" y="0" width="600" height="525"></rect>
            <g id="sm/clutch" transform="translate(355.000000, 203.000000)">
                <g id="Group-6">
                    <g id="Group-3">
                        <mask id="mask-2" fill="white">
                            <use xlink:href="#path-1"></use>
                        </mask>
                        <g id="Clip-2"></g>
                        <path d="M10.7934556,11.26504 C9.99934444,11.91784 8.88867778,12.40824 7.77801111,12.40824 C5.23778889,12.40824 3.49167778,10.44824 3.49167778,7.83704 C3.49167778,5.22424 5.23778889,3.42824 7.77801111,3.42824 C8.88867778,3.42824 9.99934444,3.75464 10.7934556,4.57144 L11.2694556,5.06104 L13.8096778,2.61224 L13.1750111,2.12264 C11.7462333,0.81624 9.84067778,0.00024 7.77801111,0.00024 C3.33301111,0.00024 0.000233333333,3.42824 0.000233333333,8.00024 C0.000233333333,12.57144 3.33301111,16.00024 7.77801111,16.00024 C9.84067778,16.00024 11.7462333,15.18344 13.1750111,13.87784 L13.8096778,13.38744 L11.2694556,10.77544 L10.7934556,11.26504 Z" id="Fill-1" fill="#000000" mask="url(#mask-2)"></path>
                    </g>
                    <path d="M7.61934444,5.38768 C9.02167778,5.38768 10.1587889,6.55728 10.1587889,8.00048 C10.1587889,9.44208 9.02167778,10.61168 7.61934444,10.61168 C6.21623333,10.61168 5.07912222,9.44208 5.07912222,8.00048 C5.07912222,6.55728 6.21623333,5.38768 7.61934444,5.38768" id="Fill-4" fill="#000000"></path>
                </g>
            </g>
        </g>
    </g>
</svg>