<?xml version="1.0" encoding="UTF-8"?>
<svg width="16px" height="16px" viewBox="0 0 16 16" version="1.1" xmlns="http://www.w3.org/2000/svg" xmlns:xlink="http://www.w3.org/1999/xlink">
    <!-- Generator: sketchtool 62 (101010) - https://sketch.com -->
    <title>6BDC2494-7356-41F0-B6DE-9B3D8154F951</title>
    <desc>Created with sketchtool.</desc>
    <defs>
        <polygon id="path-1" points="0.00024 0.00056 16 0.00056 16 16 0.00024 16"></polygon>
    </defs>
    <g id="Desktop" stroke="none" stroke-width="1" fill="none" fill-rule="evenodd">
        <g id="Kreatik_mail_stopka_v1x2" transform="translate(-262.000000, -203.000000)">
            <rect fill="#FFFFFF" x="0" y="0" width="600" height="525"></rect>
            <g id="sm/dribbble" transform="translate(262.000000, 203.000000)">
                <g id="Group-3">
                    <mask id="mask-2" fill="white">
                        <use xlink:href="#path-1"></use>
                    </mask>
                    <g id="Clip-2"></g>
                    <path d="M11.22104,14.28456 C11.09064,12.46216 10.75144,10.68776 10.20664,8.98296 C11.72584,8.56616 13.41224,8.42616 15.01224,8.84056 C14.72904,11.21576 13.26264,13.23416 11.22104,14.28456 M8.00024,15.06296 C6.49064,15.06296 5.09064,14.58696 3.94184,13.77656 C4.29784,12.57256 5.50344,11.27096 7.22664,10.24456 C7.83384,9.88296 8.54344,9.54216 9.31704,9.26536 C9.86424,10.98696 10.20024,12.80376 10.30664,14.67496 C9.58344,14.92616 8.80744,15.06296 8.00024,15.06296 M0.93784,8.00056 C0.93784,7.79256 0.94744,7.58696 0.96504,7.38456 C1.39304,7.43016 1.84024,7.45256 2.30264,7.45256 C4.12584,7.45256 6.17304,7.10136 8.18424,6.43576 C8.49144,7.06456 8.76744,7.71016 9.01064,8.37256 C8.22664,8.65416 7.46344,9.01256 6.74664,9.43896 C4.98984,10.48536 3.70424,11.83096 3.17144,13.14936 C1.79784,11.85976 0.93784,10.02856 0.93784,8.00056 M4.90424,1.65336 C6.01144,2.83816 6.96344,4.16216 7.74744,5.59256 C5.41384,6.34776 3.05064,6.65576 1.10744,6.45656 C1.58104,4.34216 3.00424,2.58376 4.90424,1.65336 M8.00024,0.93736 C9.83784,0.93736 11.51384,1.64296 12.77144,2.79816 C12.28104,3.46776 10.88344,4.44136 8.64024,5.28136 C7.85704,3.82296 6.91784,2.48296 5.83304,1.27816 C6.51624,1.05736 7.24424,0.93736 8.00024,0.93736 M13.42584,3.48456 C14.42504,4.68296 15.03464,6.21576 15.06104,7.88776 C13.80904,7.59496 12.41864,7.57496 11.00264,7.83336 C10.63464,7.90056 10.26584,7.98536 9.89944,8.08856 C9.77784,7.75656 9.64824,7.42776 9.51064,7.10216 C9.37064,6.76936 9.22264,6.44296 9.06744,6.12136 C10.75464,5.47736 12.58264,4.51816 13.42584,3.48456 M8.00024,0.00056 C3.59464,0.00056 0.00024,3.59576 0.00024,8.00056 C0.00024,12.40456 3.59544,16.00056 8.00024,16.00056 C12.40504,16.00056 16.00024,12.40456 16.00024,8.00056 C16.00024,3.59496 12.40424,0.00056 8.00024,0.00056" id="Fill-1" fill="#000000" mask="url(#mask-2)"></path>
                </g>
            </g>
        </g>
    </g>
</svg>