<?xml version="1.0" encoding="UTF-8"?>
<svg width="16px" height="16px" viewBox="0 0 16 16" version="1.1" xmlns="http://www.w3.org/2000/svg" xmlns:xlink="http://www.w3.org/1999/xlink">
    <!-- Generator: sketchtool 62 (101010) - https://sketch.com -->
    <title>C17A4ADA-3DCD-417E-B345-668BA31A8510</title>
    <desc>Created with sketchtool.</desc>
    <defs>
        <polygon id="path-1" points="0 0.00016 15.99984 0.00016 15.99984 16 0 16"></polygon>
    </defs>
    <g id="Desktop" stroke="none" stroke-width="1" fill="none" fill-rule="evenodd">
        <g id="Kreatik_mail_stopka_v1x2" transform="translate(-200.000000, -203.000000)">
            <rect fill="#FFFFFF" x="0" y="0" width="600" height="525"></rect>
            <g id="sm/facebook" transform="translate(200.000000, 203.000000)">
                <g id="Group-3">
                    <mask id="mask-2" fill="white">
                        <use xlink:href="#path-1"></use>
                    </mask>
                    <g id="Clip-2"></g>
                    <path d="M15.99984,2.00016 L15.99984,14.00016 C15.99984,15.10336 15.10304,16.00016 13.99984,16.00016 L10.99984,16.00016 L10.99984,10.50016 L12.49984,10.50016 L13.49984,8.00016 L10.99984,8.00016 L10.99984,6.00016 C10.99984,5.44816 11.44864,5.50016 11.99984,5.50016 L12.99984,5.50016 L12.99984,3.00016 L10.99984,3.00016 C10.17184,3.00016 9.42144,3.33536 8.87904,3.87936 C8.33584,4.42096 7.99984,5.17136 7.99984,6.00016 L7.99984,8.00016 L5.99984,8.00016 L5.99984,10.50016 L7.99984,10.50016 L7.99984,16.00016 L1.99984,16.00016 C0.89664,16.00016 -0.00016,15.10336 -0.00016,14.00016 L-0.00016,2.00016 C-0.00016,0.89696 0.89664,0.00016 1.99984,0.00016 L13.99984,0.00016 C15.10304,0.00016 15.99984,0.89696 15.99984,2.00016" id="Fill-1" fill="#000000" mask="url(#mask-2)"></path>
                </g>
            </g>
        </g>
    </g>
</svg>