<?xml version="1.0" encoding="UTF-8"?>
<svg width="16px" height="16px" viewBox="0 0 16 16" version="1.1" xmlns="http://www.w3.org/2000/svg" xmlns:xlink="http://www.w3.org/1999/xlink">
    <!-- Generator: sketchtool 62 (101010) - https://sketch.com -->
    <title>DDD50697-C82C-4A4D-B69D-3E51AD1AF8DD</title>
    <desc>Created with sketchtool.</desc>
    <defs>
        <polygon id="path-1" points="0.00048 -0.00304 16 -0.00304 16 16 0.00048 16"></polygon>
    </defs>
    <g id="Desktop" stroke="none" stroke-width="1" fill="none" fill-rule="evenodd">
        <g id="Kreatik_mail_stopka_v1x2" transform="translate(-231.000000, -203.000000)">
            <rect fill="#FFFFFF" x="0" y="0" width="600" height="525"></rect>
            <g id="sm/instagram" transform="translate(231.000000, 203.000000)">
                <g id="Group-8">
                    <g id="Group-3" transform="translate(0.000000, 0.003040)">
                        <mask id="mask-2" fill="white">
                            <use xlink:href="#path-1"></use>
                        </mask>
                        <g id="Clip-2"></g>
                        <path d="M14.51808,11.23536 C14.48368,12.01776 14.35248,12.43936 14.24288,12.72016 C13.97408,13.41856 13.42048,13.97136 12.72368,14.24016 C12.44208,14.34976 12.01728,14.48096 11.23888,14.51536 C10.39488,14.55216 10.14128,14.56176 8.00608,14.56176 C5.87088,14.56176 5.61488,14.55216 4.77328,14.51536 C3.99248,14.48096 3.57008,14.34976 3.28848,14.24016 C2.94208,14.11216 2.62608,13.90896 2.36928,13.64336 C2.10368,13.38336 1.90128,13.07056 1.77248,12.72336 C1.66288,12.44256 1.53168,12.01776 1.49728,11.23856 C1.45968,10.39456 1.45088,10.14176 1.45088,8.00656 C1.45088,5.87136 1.45968,5.61536 1.49728,4.77376 C1.53168,3.99216 1.66288,3.57056 1.77248,3.28816 C1.90128,2.94176 2.10368,2.62576 2.37248,2.36976 C2.63248,2.10416 2.94528,1.90096 3.29168,1.77296 C3.57328,1.66336 3.99888,1.53216 4.77728,1.49776 C5.62048,1.46016 5.87408,1.45136 8.00928,1.45136 C10.14768,1.45136 10.40128,1.46016 11.24208,1.49776 C12.02368,1.53216 12.44528,1.66336 12.72688,1.77296 C13.07408,1.90096 13.38928,2.10416 13.64608,2.36976 C13.91168,2.62896 14.11488,2.94176 14.24288,3.28816 C14.35248,3.57056 14.48368,3.99536 14.51808,4.77376 C14.55568,5.61856 14.56528,5.87136 14.56528,8.00656 C14.56528,10.14176 14.55568,10.39136 14.51808,11.23536 M15.95968,4.70176 C15.92208,3.85216 15.78448,3.26736 15.58688,2.76016 C15.38448,2.22256 15.07168,1.74176 14.66208,1.34096 C14.26208,0.93456 13.77728,0.61856 13.24608,0.41856 C12.73648,0.22176 12.15488,0.08496 11.30448,0.04736 C10.44768,0.00656 10.17568,-0.00304 8.00288,-0.00304 C5.83088,-0.00304 5.55808,0.00656 4.70448,0.04416 C3.85488,0.08176 3.27008,0.21856 2.76368,0.41616 C2.22608,0.61856 1.74448,0.93136 1.34448,1.34096 C0.93808,1.74176 0.62208,2.22576 0.42208,2.75696 C0.22528,3.26736 0.08768,3.84896 0.05008,4.69856 C0.00928,5.55536 0.00048,5.82736 0.00048,8.00016 C0.00048,10.17296 0.00928,10.44496 0.04688,11.29776 C0.08448,12.14896 0.22208,12.73296 0.41888,13.23936 C0.62208,13.77776 0.93808,14.25856 1.34448,14.65856 C1.74448,15.06496 2.22928,15.38176 2.76048,15.58176 C3.27008,15.77856 3.85168,15.91616 4.70208,15.95296 C5.55488,15.99056 5.82768,16.00016 8.00048,16.00016 C10.17248,16.00016 10.44448,15.99056 11.29808,15.95296 C12.14848,15.91616 12.73328,15.77856 13.23968,15.58176 C14.31488,15.16496 15.16528,14.31536 15.58128,13.23936 C15.77808,12.72976 15.91568,12.14896 15.95328,11.29776 C15.99088,10.44496 16.00048,10.17296 16.00048,8.00016 C16.00048,5.82736 15.99728,5.55536 15.95968,4.70176" id="Fill-1" fill="#000000" mask="url(#mask-2)"></path>
                    </g>
                    <path d="M8.0032,10.66968 C6.5304,10.66968 5.3368,9.47608 5.3368,8.00328 C5.3368,6.53048 6.5304,5.33608 8.0032,5.33608 C9.4752,5.33608 10.6696,6.53048 10.6696,8.00328 C10.6696,9.47608 9.4752,10.66968 8.0032,10.66968 M8.0032,3.89208 C5.7336,3.89208 3.892,5.73368 3.892,8.00328 C3.892,10.27288 5.7336,12.11448 8.0032,12.11448 C10.2728,12.11448 12.1144,10.27288 12.1144,8.00328 C12.1144,5.73368 10.2728,3.89208 8.0032,3.89208" id="Fill-4" fill="#000000"></path>
                    <path d="M13.2364,3.72984 C13.2364,4.25944 12.8068,4.68904 12.2764,4.68904 C11.7468,4.68904 11.3172,4.25944 11.3172,3.72984 C11.3172,3.19944 11.7468,2.76984 12.2764,2.76984 C12.8068,2.76984 13.2364,3.19944 13.2364,3.72984" id="Fill-6" fill="#000000"></path>
                </g>
            </g>
        </g>
    </g>
</svg>