<?xml version="1.0" encoding="UTF-8"?>
<svg width="16px" height="16px" viewBox="0 0 16 16" version="1.1" xmlns="http://www.w3.org/2000/svg" xmlns:xlink="http://www.w3.org/1999/xlink">
    <!-- Generator: sketchtool 62 (101010) - https://sketch.com -->
    <title>AC30ED82-581B-4FB0-99B9-B4D5E50B6178</title>
    <desc>Created with sketchtool.</desc>
    <defs>
        <polygon id="path-1" points="0.00024 0.00056 16 0.00056 16 15.99976 0.00024 15.99976"></polygon>
    </defs>
    <g id="Desktop" stroke="none" stroke-width="1" fill="none" fill-rule="evenodd">
        <g id="Kreatik_mail_stopka_v1x2" transform="translate(-324.000000, -203.000000)">
            <rect fill="#FFFFFF" x="0" y="0" width="600" height="525"></rect>
            <g id="sm/linked" transform="translate(324.000000, 203.000000)">
                <g id="Group-3">
                    <mask id="mask-2" fill="white">
                        <use xlink:href="#path-1"></use>
                    </mask>
                    <g id="Clip-2"></g>
                    <path d="M14.12504,1.25016 C14.46984,1.25016 14.74984,1.53096 14.74984,1.87496 L14.74984,14.12536 C14.74984,14.46936 14.46984,14.75016 14.12504,14.75016 L1.87464,14.75016 C1.53064,14.75016 1.24984,14.46936 1.24984,14.12536 L1.24984,1.87496 C1.24984,1.53096 1.53064,1.25016 1.87464,1.25016 L14.12504,1.25016 Z M16.00024,14.12536 L16.00024,1.87496 C16.00024,0.84056 15.15864,0.00056 14.12504,0.00056 L1.87464,0.00056 C0.84104,0.00056 0.00024,0.84056 0.00024,1.87496 L0.00024,14.12536 C0.00024,15.15896 0.84104,15.99976 1.87464,15.99976 L14.12504,15.99976 C15.15864,15.99976 16.00024,15.15896 16.00024,14.12536 L16.00024,14.12536 Z M13.18744,9.33336 C13.18744,7.43736 12.78744,6.03176 10.57224,6.03176 C9.50824,6.03176 8.79384,6.56376 8.50184,7.11656 L8.50024,7.11656 L8.50024,6.15656 L6.37464,6.15656 L6.37464,13.21896 L8.50024,13.21896 L8.50024,9.71176 C8.50024,8.79416 8.73384,7.90376 9.87224,7.90376 C10.99464,7.90376 11.03144,8.95416 11.03144,9.77016 L11.03144,13.21896 L13.18744,13.21896 L13.18744,9.33336 Z M5.21864,3.90616 C5.21864,3.19896 4.64504,2.62536 3.93784,2.62536 C3.22824,2.62536 2.65624,3.19896 2.65624,3.90616 C2.65624,4.61336 3.22824,5.18776 3.93784,5.18776 C4.64504,5.18776 5.21864,4.61336 5.21864,3.90616 L5.21864,3.90616 Z M2.81304,13.21896 L5.00024,13.21896 L5.00024,6.15656 L2.81304,6.15656 L2.81304,13.21896 Z" id="Fill-1" fill="#000000" mask="url(#mask-2)"></path>
                </g>
            </g>
        </g>
    </g>
</svg>